<?xml version="1.0" encoding="UTF-8"?>
<svg version="1.1" xmlns="http://www.w3.org/2000/svg" width="500" height="500">
<path d="M0 0 C0 114.51 0 229.02 0 347 C-0.66 347 -1.32 347 -2 347 C-2.165 347.680625 -2.33 348.36125 -2.5 349.0625 C-3.97265481 351.946449 -4.82916807 352.85836954 -7.25 354.83984375 C-11.1517662 358.17427915 -14.79124386 361.70597028 -18.40625 365.34375 C-18.9794397 365.9201976 -19.55262939 366.4966452 -20.14318848 367.09056091 C-21.93071708 368.89181243 -23.71578807 370.69546344 -25.5 372.5 C-38.66606801 385.81604763 -38.66606801 385.81604763 -42.96875 389.46875 C-49.35525683 394.89761801 -55.11010163 401.04561369 -61 407 C-75.13123923 421.28596083 -75.13123923 421.28596083 -81.30957031 426.52783203 C-84.72401527 429.50141711 -87.81466353 432.81327878 -90.94921875 436.07617188 C-92.2639718 437.41980193 -93.62816888 438.71469976 -95 440 C-95.66 440 -96.32 440 -97 440 C-97.05566593 424.94664367 -96.88914355 409.90260933 -96.6328125 394.8515625 C-96.61324368 393.69690868 -96.59367485 392.54225487 -96.57351303 391.35261154 C-96.46981529 385.27018768 -96.36350566 379.18781524 -96.25537109 373.10546875 C-96.16680151 368.09349659 -96.08375286 363.08147761 -96.00537109 358.06933594 C-95.90997974 351.97071536 -95.80539424 345.87231855 -95.6941185 339.77396774 C-95.65345334 337.46237955 -95.61599815 335.15073253 -95.58185196 332.83903885 C-95.53363043 329.62114296 -95.47357197 326.4036724 -95.41064453 323.18603516 C-95.39913361 322.23849869 -95.38762268 321.29096222 -95.37576294 320.31471252 C-95.23380375 313.93622485 -94.86363077 308.33921378 -90.09838867 303.62841797 C-89.51405563 303.04115936 -88.9297226 302.45390076 -88.3276825 301.84884644 C-87.69747696 301.23614899 -87.06727142 300.62345154 -86.41796875 299.9921875 C-85.76677567 299.34428253 -85.11558258 298.69637756 -84.44465637 298.02883911 C-82.36813574 295.96801852 -80.27786268 293.92176829 -78.1875 291.875 C-76.79275724 290.4917546 -75.39886764 289.10764838 -74.00585938 287.72265625 C-72.66483096 286.39505665 -71.32305833 285.06820828 -69.98046875 283.7421875 C-69.35633591 283.12544159 -68.73220306 282.50869568 -68.0891571 281.8732605 C-67.49536758 281.29230621 -66.90157806 280.71135193 -66.28979492 280.11279297 C-65.77398361 279.60682587 -65.2581723 279.10085876 -64.72673035 278.57955933 C-63 277 -63 277 -60.42965889 275.2516613 C-57.80043242 273.23452392 -57.80043242 273.23452392 -57.38476086 270.39946365 C-57.38936982 269.4076144 -57.39397879 268.41576515 -57.39872742 267.39385986 C-57.3918541 266.25245041 -57.38498077 265.11104095 -57.37789917 263.93504333 C-57.39587555 262.68707474 -57.41385193 261.43910614 -57.43237305 260.15332031 C-57.43164291 258.83600418 -57.43091278 257.51868805 -57.43016052 256.16145325 C-57.42872588 252.55195981 -57.45812194 248.94329712 -57.49303031 245.33399677 C-57.5242866 241.56106592 -57.52722395 237.78811603 -57.53315735 234.01507568 C-57.54869804 226.8716246 -57.58972919 219.72855611 -57.6399048 212.5852735 C-57.69579155 204.45237871 -57.72328302 196.31946565 -57.74838197 188.18642664 C-57.80064515 171.45739379 -57.88859137 154.72874572 -58 138 C-59.44670982 139.75872176 -60.89209317 141.51853472 -62.33691406 143.27880859 C-63.14195374 144.25868744 -63.94699341 145.23856628 -64.77642822 146.24813843 C-67.24258905 149.30022484 -69.51398075 152.40154159 -71.75 155.625 C-77.58133349 163.94088535 -83.78904543 171.96591483 -90 180 C-90.57572754 179.80736572 -91.15145508 179.61473145 -91.74462891 179.41625977 C-113.95937179 171.99523783 -134.25793649 167.58466212 -157.3359375 174.02734375 C-159.14964844 174.50880859 -159.14964844 174.50880859 -161 175 C-162.08023438 175.31710938 -163.16046875 175.63421875 -164.2734375 175.9609375 C-170.05159225 176.02150516 -174.23523538 173.371874 -179.25 170.6875 C-180.8592334 169.85436279 -180.8592334 169.85436279 -182.50097656 169.00439453 C-185.67742747 167.35470159 -188.84037542 165.68165228 -192 164 C-193.5101978 163.20140888 -195.02058896 162.40318323 -196.53125 161.60546875 C-198.65867003 160.48147445 -200.78529547 159.35619065 -202.90869141 158.22460938 C-213.29290699 152.72492505 -223.84785287 147.55255635 -234.37402344 142.33154297 C-235.13731964 141.95200974 -235.90061584 141.5724765 -236.68704224 141.18144226 C-238.11604958 140.47097251 -239.5458902 139.76217489 -240.97677612 139.05549622 C-244.61806711 137.24385928 -248.19987988 135.35345573 -251.7515564 133.37117004 C-252.55055044 132.92570737 -253.34954449 132.48024469 -254.17275047 132.02128315 C-254.77574282 131.68425971 -255.37873516 131.34723627 -256 131 C-255.98984863 132.29670624 -255.97969727 133.59341248 -255.96923828 134.92941284 C-255.85400234 157.77564799 -256.37319582 180.61400724 -256.80771637 203.45485544 C-256.92157384 209.46717541 -257.03264996 215.4795468 -257.14404297 221.49191284 C-257.35460813 232.83481796 -257.56761195 244.17767586 -257.78153038 255.52051818 C-258.02528624 268.45191559 -258.26626493 281.3833643 -258.50703049 294.31481767 C-259.00163492 320.87660261 -259.4996615 347.43832249 -260 374 C-260.66 374.33 -261.32 374.66 -262 375 C-263.87004089 374.28987122 -263.87004089 374.28987122 -266.17651367 373.10083008 C-267.04310104 372.6589888 -267.90968842 372.21714752 -268.80253601 371.76191711 C-269.74812881 371.26942978 -270.69372162 370.77694244 -271.66796875 370.26953125 C-272.65380447 369.76387131 -273.6396402 369.25821136 -274.65534973 368.73722839 C-277.83662723 367.1030965 -281.01203963 365.45790234 -284.1875 363.8125 C-286.24767902 362.75253992 -288.30822221 361.69328736 -290.36914062 360.63476562 C-302.56256661 354.36396256 -314.7205581 348.02523651 -326.87329102 341.67602539 C-331.13769804 339.44862309 -335.40684871 337.23071431 -339.6796875 335.01953125 C-341.25363281 334.20452148 -341.25363281 334.20452148 -342.859375 333.37304688 C-344.95511609 332.28852801 -347.05151882 331.20528712 -349.1484375 330.12304688 C-350.169375 329.59388672 -351.1903125 329.06472656 -352.2421875 328.51953125 C-353.58579346 327.82500854 -353.58579346 327.82500854 -354.95654297 327.11645508 C-357 326 -357 326 -358 325 C-358.10995748 321.99707336 -358.15166822 319.01815137 -358.15039062 316.0144043 C-358.15314499 315.04585573 -358.15589935 314.07730717 -358.15873718 313.07940865 C-358.16476003 309.76514522 -358.16129836 306.45098312 -358.15625 303.13671875 C-358.15567093 301.96820562 -358.15509186 300.7996925 -358.15449524 299.59576988 C-358.12063556 264.16030636 -357.31589014 228.73225228 -356.60931396 193.30529785 C-356.3362114 179.60249767 -356.06971844 165.89956778 -355.80709887 152.19656295 C-355.72510998 147.92804405 -355.64189603 143.65955673 -355.55558777 139.39112282 C-355.3580045 129.61557487 -355.18012709 119.84004337 -355.03271866 110.06360674 C-354.99996019 107.997489 -354.9626356 105.93149559 -354.92428589 103.8654747 C-354.85479485 100.04808594 -354.81136582 96.23066079 -354.77148438 92.4128418 C-354.74881752 91.28962682 -354.72615067 90.16641184 -354.70279694 89.00916004 C-354.69658073 87.98964599 -354.69036453 86.97013193 -354.68395996 85.91972351 C-354.67242638 85.03592357 -354.66089279 84.15212362 -354.6490097 83.24154186 C-355.07059732 80.54914181 -355.91230769 79.68188709 -358 78 C-347.20482897 73.31177958 -336.16918102 69.3042947 -325.125 65.25 C-323.10154123 64.50491738 -321.07818702 63.75955074 -319.05493164 63.01391602 C-314.83962021 61.46074986 -310.62386147 59.90880768 -306.40771484 58.35791016 C-297.05813024 54.9182119 -287.71171826 51.46993115 -278.36639404 48.01867676 C-275.53452471 46.97331586 -272.70211023 45.92944349 -269.86962891 44.88574219 C-268.07844073 44.2246359 -266.28726218 43.56350353 -264.49609375 42.90234375 C-263.20242889 42.42645309 -263.20242889 42.42645309 -261.88262939 41.94094849 C-257.30470825 40.25014928 -252.74757104 38.51724642 -248.20751953 36.72705078 C-247.2574855 36.35528214 -246.30745148 35.98351349 -245.32862854 35.60047913 C-243.51654769 34.88914982 -241.70766189 34.16960565 -239.9026947 33.44041443 C-230.36347747 29.70638429 -230.36347747 29.70638429 -225.12434387 31.72138977 C-222.90025134 32.74929888 -220.74645701 33.86793684 -218.5859375 35.0234375 C-217.38087051 35.64898529 -217.38087051 35.64898529 -216.15145874 36.28717041 C-213.55336506 37.63872914 -210.96434439 39.00676621 -208.375 40.375 C-206.59085497 41.30649033 -204.80602224 42.23666463 -203.02050781 43.16552734 C-199.54300098 44.97523319 -196.06801191 46.78962885 -192.59472656 48.60742188 C-187.3465414 51.34799551 -182.06036274 54.0071371 -176.75 56.625 C-167.41210528 61.25014096 -158.2005086 66.10832687 -149 71 C-148.88100342 70.40646729 -148.76200684 69.81293457 -148.6394043 69.20141602 C-147.58899595 65.58494712 -145.09258457 62.8720733 -142.8125 59.9375 C-141.71137303 58.49545294 -140.61114918 57.05271593 -139.51171875 55.609375 C-138.93470215 54.85462891 -138.35768555 54.09988281 -137.76318359 53.32226562 C-134.84198341 49.47479177 -131.98427085 45.58109499 -129.125 41.6875 C-127.94663097 40.08592544 -126.7682454 38.48436305 -125.58984375 36.8828125 C-124.3932047 35.25522632 -123.19659037 33.62762197 -122 32 C-117.85994459 26.37075556 -113.71694659 20.74371758 -109.56591797 15.12255859 C-108.5582964 13.75675536 -107.55200281 12.38997088 -106.54736328 11.02197266 C-105.28525523 9.3035605 -104.01839708 7.58877232 -102.75 5.875 C-102.06421875 4.94429687 -101.3784375 4.01359375 -100.671875 3.0546875 C-79.48252233 -22.98643283 -33.57273618 0 0 0 Z " fill="#FBB143" transform="translate(431,31)"/>
<path d="M0 0 C3.5970485 0.71403696 6.57890535 2.16770583 9.84765625 3.80859375 C10.99951416 4.38512695 12.15137207 4.96166016 13.33813477 5.55566406 C14.57971019 6.18270446 15.82116235 6.809989 17.0625 7.4375 C18.34881725 8.08442863 19.63519473 8.7312375 20.92163086 9.37792969 C28.38263222 13.13588843 35.81000377 16.95265883 43.18359375 20.87963867 C48.62822658 23.77239071 54.10459749 26.59921923 59.59375 29.40625 C60.36657822 29.8018512 61.13940643 30.19745239 61.93565369 30.6050415 C65.08103834 32.2148424 68.22645619 33.82452691 71.3755188 35.42712402 C73.59697881 36.55772293 75.81619836 37.69262497 78.03515625 38.828125 C78.6887915 39.15913208 79.34242676 39.49013916 80.01586914 39.83117676 C81.31420601 40.49727789 82.60313346 41.18202673 83.88218689 41.88444519 C86.06237353 43.07054881 86.06237353 43.07054881 88.68238831 44.13764954 C91.57136451 45.51481391 93.71143994 46.75572506 96 49 C97.45707482 53.32614629 97.23235138 57.48553053 97.08203125 62.01171875 C97.07186387 63.4176193 97.06602716 64.82355632 97.06401062 66.22949219 C97.04459563 70.2011124 96.96017126 74.16927097 96.86636353 78.13973618 C96.77471673 82.47466193 96.74150676 86.81011674 96.69921875 91.14575195 C96.59333067 100.72519135 96.4192947 110.30268746 96.23174477 119.88083363 C96.02387999 130.55438926 95.84002901 141.22825818 95.66162109 151.90234375 C94.8615789 199.60333659 93.96584014 247.30208872 93 295 C92.34 295.33 91.68 295.66 91 296 C89.12995911 295.28987122 89.12995911 295.28987122 86.82348633 294.10083008 C85.95689896 293.6589888 85.09031158 293.21714752 84.19746399 292.76191711 C83.25187119 292.26942978 82.30627838 291.77694244 81.33203125 291.26953125 C80.34619553 290.76387131 79.3603598 290.25821136 78.34465027 289.73722839 C75.16337277 288.1030965 71.98796037 286.45790234 68.8125 284.8125 C66.75232098 283.75253992 64.69177779 282.69328736 62.63085938 281.63476562 C50.43743339 275.36396256 38.2794419 269.02523651 26.12670898 262.67602539 C21.86230196 260.44862309 17.59315129 258.23071431 13.3203125 256.01953125 C11.74636719 255.20452148 11.74636719 255.20452148 10.140625 254.37304688 C8.04488391 253.28852801 5.94848118 252.20528712 3.8515625 251.12304688 C2.830625 250.59388672 1.8096875 250.06472656 0.7578125 249.51953125 C-0.58579346 248.82500854 -0.58579346 248.82500854 -1.95654297 248.11645508 C-4 247 -4 247 -5 246 C-5.10921209 243.01241673 -5.15012321 240.04893208 -5.14819336 237.06054688 C-5.15077967 236.0955275 -5.15336597 235.13050812 -5.15603065 234.13624573 C-5.16157791 230.83038031 -5.15772637 227.52461502 -5.15234375 224.21875 C-5.1516432 223.05278793 -5.15094265 221.88682587 -5.15022087 220.68553162 C-5.11431207 185.73653381 -4.38826497 150.79391243 -3.7203964 115.85252762 C-3.57709359 108.33018282 -3.44091431 100.80772097 -3.30632645 93.28521585 C-3.15876284 85.04748325 -3.00620665 76.80985022 -2.85142326 68.57225037 C-2.78637578 65.10512581 -2.7231029 61.63797581 -2.66131783 58.17079163 C-2.58902029 54.12519006 -2.51236019 50.07969422 -2.43231201 46.03423882 C-2.40377265 44.55641472 -2.3767362 43.0785607 -2.35133171 41.6006794 C-2.31639006 39.58246561 -2.27541154 37.56435904 -2.23414612 35.54626465 C-2.21294488 34.41991356 -2.19174364 33.29356247 -2.16989994 32.13307953 C-2.0011065 29.02040473 -1.55220328 26.06515688 -1 23 C-0.86248164 21.12968492 -0.75728705 19.25672795 -0.68359375 17.3828125 C-0.64169922 16.36445312 -0.59980469 15.34609375 -0.55664062 14.296875 C-0.51732422 13.25015625 -0.47800781 12.2034375 -0.4375 11.125 C-0.37272461 9.52011719 -0.37272461 9.52011719 -0.30664062 7.8828125 C-0.20107183 5.25532246 -0.09896209 2.62774578 0 0 Z " fill="#FF924F" transform="translate(78,110)"/>
<path d="M0 0 C0.75866364 0.40575256 1.51732727 0.81150513 2.29898071 1.22955322 C3.5040477 1.85510101 3.5040477 1.85510101 4.73345947 2.49328613 C7.33155315 3.84484486 9.92057382 5.21288193 12.50991821 6.58111572 C14.29406324 7.51260606 16.07889597 8.44278035 17.8644104 9.37164307 C21.34191723 11.18134891 24.8169063 12.99574458 28.29019165 14.8135376 C33.53837681 17.55411123 38.82455547 20.21325282 44.13491821 22.83111572 C53.47281293 27.45625668 62.68440961 32.3144426 71.88491821 37.20611572 C72.21491821 35.88611572 72.54491821 34.56611572 72.88491821 33.20611572 C73.89712095 35.2305212 74.35135108 37.01217679 74.88491821 39.20611572 C75.34767837 40.74688309 75.82125664 42.2844236 76.30288696 43.81939697 C79.38372832 53.73166916 82.32978416 63.6442458 84.88491821 73.70611572 C86.85053835 81.44290714 89.01377801 89.08385284 91.38491821 96.70611572 C93.86225968 104.68233175 96.1517898 112.68659777 98.25991821 120.76861572 C98.51064087 121.72638916 98.76136353 122.6841626 99.01968384 123.67095947 C100.17531864 128.16473716 101.22672104 132.60638894 101.88491821 137.20611572 C101.21661987 137.18516846 100.54832153 137.16422119 99.85977173 137.14263916 C87.29394019 136.8020024 75.5486291 136.73898872 63.40835571 140.23345947 C62.24562134 140.55443604 61.08288696 140.8754126 59.88491821 141.20611572 C58.27230103 141.68177979 58.27230103 141.68177979 56.62710571 142.16705322 C50.83918648 142.22746992 46.65837382 139.58264196 41.63491821 136.89361572 C40.02568481 136.06047852 40.02568481 136.06047852 38.38394165 135.21051025 C35.20749075 133.56081731 32.04454279 131.88776801 28.88491821 130.20611572 C27.37472041 129.40752461 25.86432925 128.60929896 24.35366821 127.81158447 C22.22624819 126.68759018 20.09962275 125.56230638 17.97622681 124.4307251 C7.59201122 118.93104077 -2.96293466 113.75867208 -13.48910522 108.53765869 C-14.25240143 108.15812546 -15.01569763 107.77859222 -15.80212402 107.38755798 C-17.23113137 106.67708823 -18.66097199 105.96829061 -20.09185791 105.26161194 C-25.20081145 102.71977472 -30.11166883 99.98578959 -35.11508179 97.20611572 C-35.11508179 105.78611572 -35.11508179 114.36611572 -35.11508179 123.20611572 C-35.44508179 123.20611572 -35.77508179 123.20611572 -36.11508179 123.20611572 C-36.44508179 113.63611572 -36.77508179 104.06611572 -37.11508179 94.20611572 C-41.34320679 92.01986572 -45.57133179 89.83361572 -49.92758179 87.58111572 C-59.82638836 82.4618347 -69.72259614 77.33760279 -79.61508179 72.20611572 C-88.66734206 67.51148089 -97.71971076 62.81705385 -106.77523804 58.12872314 C-108.02129825 57.48346481 -109.26723397 56.83796601 -110.51303101 56.19219971 C-112.25633283 55.28860971 -114.00015407 54.38602206 -115.74398804 53.48345947 C-116.73471313 52.97033203 -117.72543823 52.45720459 -118.7461853 51.92852783 C-123.18735889 49.65789375 -127.65370962 47.4368018 -132.11508179 45.20611572 C-132.11508179 52.79611572 -132.11508179 60.38611572 -132.11508179 68.20611572 C-132.44508179 68.20611572 -132.77508179 68.20611572 -133.11508179 68.20611572 C-133.13695557 67.27545288 -133.13695557 67.27545288 -133.15927124 66.32598877 C-133.23374767 63.51456939 -133.33040743 60.70433823 -133.42758179 57.89361572 C-133.45014038 56.91715088 -133.47269897 55.94068604 -133.49594116 54.93463135 C-133.53139038 53.99683838 -133.5668396 53.05904541 -133.60336304 52.09283447 C-133.62954712 51.22875977 -133.6557312 50.36468506 -133.68270874 49.47442627 C-134.19173551 46.80397585 -135.03838087 45.8960039 -137.11508179 44.20611572 C-126.31991076 39.51789531 -115.2842628 35.51041042 -104.24008179 31.45611572 C-102.21662302 30.71103311 -100.19326881 29.96566647 -98.17001343 29.22003174 C-93.954702 27.66686558 -89.73894326 26.11492341 -85.52279663 24.56402588 C-76.17321202 21.12432763 -66.82680005 17.67604687 -57.48147583 14.22479248 C-54.64960649 13.17943158 -51.81719202 12.13555921 -48.98471069 11.09185791 C-47.19352252 10.43075163 -45.40234397 9.76961925 -43.61117554 9.10845947 C-42.31751068 8.63256882 -42.31751068 8.63256882 -40.99771118 8.14706421 C-36.41979003 6.456265 -31.86265283 4.72336214 -27.32260132 2.9331665 C-26.37256729 2.56139786 -25.42253326 2.18962921 -24.44371033 1.80659485 C-22.63162948 1.09526554 -20.82274368 0.37572137 -19.01777649 -0.35346985 C-11.64909466 -3.23786585 -7.12300487 -3.66327109 0 0 Z " fill="#FECD72" transform="translate(210.11508178710938,64.79388427734375)"/>
<path d="M0 0 C0 41.91 0 83.82 0 127 C-0.66 127 -1.32 127 -2 127 C-1.91379395 127.74266113 -1.82758789 128.48532227 -1.73876953 129.25048828 C-2 132 -2 132 -3.72607422 133.99560547 C-4.94061279 134.98391357 -4.94061279 134.98391357 -6.1796875 135.9921875 C-10.43588904 139.61273231 -14.45392471 143.34691635 -18.3828125 147.3203125 C-18.93217468 147.8732196 -19.48153687 148.42612671 -20.04754639 148.99578857 C-21.74228432 150.70331095 -23.43407781 152.41369941 -25.125 154.125 C-37.62644987 166.77616783 -37.62644987 166.77616783 -41.9296875 170.4296875 C-48.32629945 175.87592656 -54.0966937 182.03205896 -60 188 C-74.13123923 202.28596083 -74.13123923 202.28596083 -80.30957031 207.52783203 C-83.72401527 210.50141711 -86.81466353 213.81327878 -89.94921875 217.07617188 C-91.2639718 218.41980193 -92.62816888 219.71469976 -94 221 C-94.66 221 -95.32 221 -96 221 C-96.05566593 205.94664367 -95.88914355 190.90260933 -95.6328125 175.8515625 C-95.61324368 174.69690868 -95.59367485 173.54225487 -95.57351303 172.35261154 C-95.46981529 166.27018768 -95.36350566 160.18781524 -95.25537109 154.10546875 C-95.16680151 149.09349659 -95.08375286 144.08147761 -95.00537109 139.06933594 C-94.90997974 132.97071536 -94.80539424 126.87231855 -94.6941185 120.77396774 C-94.65345334 118.46237955 -94.61599815 116.15073253 -94.58185196 113.83903885 C-94.53363043 110.62114296 -94.47357197 107.4036724 -94.41064453 104.18603516 C-94.39913361 103.23849869 -94.38762268 102.29096222 -94.37576294 101.31471252 C-94.23519031 94.99852557 -93.88626764 89.3734996 -89.17773438 84.69189453 C-88.60953979 84.11754669 -88.04134521 83.54319885 -87.45593262 82.95144653 C-86.53415222 82.05122269 -86.53415222 82.05122269 -85.59375 81.1328125 C-84.63474792 80.17518509 -84.63474792 80.17518509 -83.65637207 79.19821167 C-82.30265643 77.85052434 -80.94409689 76.50768736 -79.58105469 75.16943359 C-77.52433592 73.14890767 -75.48375954 71.11315937 -73.4453125 69.07421875 C-62.67513828 58.36421448 -62.67513828 58.36421448 -56.9765625 53.99609375 C-49.6390078 48.35792282 -43.3502952 41.52148369 -36.875 34.9375 C-34.25081956 32.27654394 -31.6233886 29.61885795 -28.9921875 26.96484375 C-28.36798416 26.33505112 -27.74378082 25.70525848 -27.10066223 25.05638123 C-23.42400654 21.36755537 -19.67390782 17.83518626 -15.6953125 14.47045898 C-12.65556165 11.83387785 -9.87296272 8.93901355 -7.0625 6.0625 C-1.13280394 0 -1.13280394 0 0 0 Z " fill="#FE924F" transform="translate(430,250)"/>
<path d="M0 0 C14.19 0 28.38 0 43 0 C41.40886665 3.97783338 39.73277455 7.4588431 37.6640625 11.18359375 C37.34343842 11.76158218 37.02281433 12.33957062 36.69247437 12.93507385 C36.0164811 14.15193769 35.3390153 15.36798455 34.66015625 16.58325195 C33.63126684 18.42627438 32.60827954 20.27247997 31.5859375 22.11914062 C30.92483098 23.30748746 30.26338363 24.49564476 29.6015625 25.68359375 C29.00682129 26.75150146 28.41208008 27.81940918 27.79931641 28.91967773 C25.97588627 32.04128126 24.03462398 35.01355262 22 38 C18.56703723 34.8825424 16.44583932 31.62285983 14.1796875 27.58984375 C13.66258713 26.67677208 13.66258713 26.67677208 13.13504028 25.74525452 C12.0421682 23.81275192 10.95831817 21.87537155 9.875 19.9375 C8.78267331 17.99716385 7.68851918 16.05787213 6.59353638 14.11903381 C5.60333582 12.36358837 4.61771049 10.60556448 3.63232422 8.84741211 C2.49113606 6.85673345 1.27280574 4.90920861 0 3 C0 2.01 0 1.02 0 0 Z " fill="#AA804D" transform="translate(282,277)"/>
</svg>
